<svg xmlns="http://www.w3.org/2000/svg" xmlns:xlink="http://www.w3.org/1999/xlink" width="1080" zoomAndPan="magnify" viewBox="0 0 810 809.999993" height="1080" preserveAspectRatio="xMidYMid meet" version="1.0"><defs><g/></defs><g fill="#21b9ff" fill-opacity="1"><g transform="translate(0.0000035, 484.108903)"><g><path d="M 97.796875 -129.953125 L 66.9375 -129.953125 L 66.9375 -168.953125 C 66.9375 -179.671875 72.78125 -186.171875 81.546875 -186.171875 L 97.140625 -186.171875 L 97.140625 -218.65625 C 93.890625 -220.9375 85.125 -222.5625 76.359375 -222.5625 C 48.734375 -222.5625 25.34375 -201.4375 25.34375 -173.828125 L 25.34375 -129.953125 L 3.578125 -129.953125 L 3.578125 -97.796875 L 25.34375 -97.796875 L 25.34375 0 L 66.9375 0 L 66.9375 -97.796875 L 97.796875 -97.796875 Z M 97.796875 -129.953125 "/></g></g></g><g fill="#21b9ff" fill-opacity="1"><g transform="translate(84.79409, 484.108903)"><g><path d="M 77.328125 2.59375 C 116.640625 2.59375 138.40625 -17.875 138.40625 -49.703125 L 138.40625 -129.953125 L 97.140625 -129.953125 L 97.140625 -55.234375 C 97.140625 -42.890625 88.703125 -34.109375 77.328125 -34.109375 C 66.28125 -34.109375 57.828125 -42.890625 57.828125 -55.234375 L 57.828125 -129.953125 L 16.25 -129.953125 L 16.25 -49.703125 C 16.25 -17.875 38.015625 2.59375 77.328125 2.59375 Z M 77.328125 2.59375 "/></g></g></g><g fill="#21b9ff" fill-opacity="1"><g transform="translate(226.768141, 484.108903)"><g><path d="M 61.078125 2.59375 C 90.328125 2.59375 108.1875 -15.265625 108.1875 -39.640625 C 108.1875 -65.625 86.75 -76.03125 68.234375 -83.171875 C 58.8125 -87.078125 54.265625 -89.015625 54.265625 -93.890625 C 54.265625 -98.125 57.5 -101.375 64.65625 -101.375 C 73.109375 -101.375 80.90625 -96.828125 84.796875 -91.953125 L 105.59375 -115.34375 C 95.84375 -125.09375 79.921875 -132.5625 61.734375 -132.5625 C 32.171875 -132.5625 13.328125 -113.0625 13.328125 -90.96875 C 13.328125 -64.984375 39.3125 -56.203125 54.265625 -50.6875 C 65.953125 -46.140625 69.859375 -42.890625 69.859375 -38.34375 C 69.859375 -33.140625 65.3125 -30.21875 58.484375 -30.21875 C 51.65625 -30.21875 42.5625 -32.8125 36.71875 -43.859375 L 6.171875 -28.59375 C 13.96875 -8.453125 38.015625 2.59375 61.078125 2.59375 Z M 61.078125 2.59375 "/></g></g></g><g fill="#21b9ff" fill-opacity="1"><g transform="translate(328.131438, 484.108903)"><g><path d="M 40.609375 -151.734375 C 52.953125 -151.734375 63.359375 -162.125 63.359375 -174.46875 C 63.359375 -187.140625 52.953125 -197.21875 40.609375 -197.21875 C 28.265625 -197.21875 17.875 -187.140625 17.875 -174.46875 C 17.875 -162.125 28.265625 -151.734375 40.609375 -151.734375 Z M 19.8125 0 L 61.078125 0 L 61.078125 -129.953125 L 19.8125 -129.953125 Z M 19.8125 0 "/></g></g></g><g fill="#21b9ff" fill-opacity="1"><g transform="translate(396.356337, 484.108903)"><g><path d="M 82.53125 2.59375 C 126.0625 2.59375 154.65625 -25.984375 154.65625 -64.984375 C 154.65625 -103.96875 126.0625 -132.5625 82.53125 -132.5625 C 38.984375 -132.5625 10.078125 -103.96875 10.078125 -64.984375 C 10.078125 -25.984375 38.984375 2.59375 82.53125 2.59375 Z M 82.53125 -34.109375 C 64.65625 -34.4375 51.65625 -47.4375 51.65625 -64.984375 C 51.65625 -82.53125 64.65625 -95.515625 82.53125 -95.84375 C 100.0625 -95.515625 113.390625 -82.53125 113.390625 -64.984375 C 113.390625 -47.4375 100.0625 -34.4375 82.53125 -34.109375 Z M 82.53125 -34.109375 "/></g></g></g><g fill="#21b9ff" fill-opacity="1"><g transform="translate(548.401856, 484.108903)"><g><path d="M 97.796875 -132.5625 C 82.84375 -132.5625 69.859375 -125.40625 60.75 -114.046875 L 60.75 -129.953125 L 19.171875 -129.953125 L 19.171875 0 L 60.75 0 L 60.75 -75.375 C 60.75 -87.078125 70.5 -95.84375 82.53125 -95.84375 C 94.546875 -95.84375 103 -87.078125 103 -75.375 L 103 0 L 144.25 0 L 144.25 -82.203125 C 144.25 -110.796875 123.46875 -132.5625 97.796875 -132.5625 Z M 97.796875 -132.5625 "/></g></g></g><g fill="#21b9ff" fill-opacity="1"><g transform="translate(696.223848, 484.108903)"><g><path d="M 61.078125 2.59375 C 90.328125 2.59375 108.1875 -15.265625 108.1875 -39.640625 C 108.1875 -65.625 86.75 -76.03125 68.234375 -83.171875 C 58.8125 -87.078125 54.265625 -89.015625 54.265625 -93.890625 C 54.265625 -98.125 57.5 -101.375 64.65625 -101.375 C 73.109375 -101.375 80.90625 -96.828125 84.796875 -91.953125 L 105.59375 -115.34375 C 95.84375 -125.09375 79.921875 -132.5625 61.734375 -132.5625 C 32.171875 -132.5625 13.328125 -113.0625 13.328125 -90.96875 C 13.328125 -64.984375 39.3125 -56.203125 54.265625 -50.6875 C 65.953125 -46.140625 69.859375 -42.890625 69.859375 -38.34375 C 69.859375 -33.140625 65.3125 -30.21875 58.484375 -30.21875 C 51.65625 -30.21875 42.5625 -32.8125 36.71875 -43.859375 L 6.171875 -28.59375 C 13.96875 -8.453125 38.015625 2.59375 61.078125 2.59375 Z M 61.078125 2.59375 "/></g></g></g></svg>